<mxfile host="app.diagrams.net" modified="2020-12-03T02:47:51.602Z" agent="5.0 (Macintosh; Intel Mac OS X 10_14_3) AppleWebKit/537.36 (KHTML, like Gecko) Chrome/86.0.4240.111 Safari/537.36" etag="4b7Wc2XiBZ2FodVhMNYs" version="13.8.0" type="github">
  <diagram id="AKO_I97irhz80ixM5-JJ" name="Page-1">
    <mxGraphModel dx="1188" dy="762" grid="1" gridSize="10" guides="1" tooltips="1" connect="1" arrows="1" fold="1" page="1" pageScale="1" pageWidth="827" pageHeight="1169" math="0" shadow="0">
      <root>
        <mxCell id="0" />
        <mxCell id="1" parent="0" />
        <mxCell id="uggn_2pLRfB9Us7H2j-P-1" value="" style="edgeStyle=orthogonalEdgeStyle;html=1;align=left;spacingLeft=2;endArrow=block;rounded=0;fillColor=#e51400;strokeColor=#B20000;" edge="1" parent="1">
          <mxGeometry x="-0.1418" y="36" relative="1" as="geometry">
            <mxPoint x="446" y="300" as="sourcePoint" />
            <Array as="points">
              <mxPoint x="507" y="300" />
              <mxPoint x="507" y="310" />
            </Array>
            <mxPoint x="446" y="310" as="targetPoint" />
            <mxPoint x="-16" y="-30" as="offset" />
          </mxGeometry>
        </mxCell>
        <mxCell id="uggn_2pLRfB9Us7H2j-P-2" value="&lt;span style=&quot;text-align: left&quot;&gt;异步截帧&lt;/span&gt;" style="edgeLabel;html=1;align=center;verticalAlign=middle;resizable=0;points=[];" vertex="1" connectable="0" parent="uggn_2pLRfB9Us7H2j-P-1">
          <mxGeometry x="-0.5816" y="-1" relative="1" as="geometry">
            <mxPoint x="16.5" y="-11" as="offset" />
          </mxGeometry>
        </mxCell>
        <mxCell id="uggn_2pLRfB9Us7H2j-P-3" value="" style="shape=umlLifeline;participant=umlActor;perimeter=lifelinePerimeter;whiteSpace=wrap;html=1;container=1;collapsible=0;recursiveResize=0;verticalAlign=top;spacingTop=36;outlineConnect=0;fillColor=#b0e3e6;strokeColor=#0e8088;" vertex="1" parent="1">
          <mxGeometry x="80" y="150" width="20" height="610" as="geometry" />
        </mxCell>
        <mxCell id="uggn_2pLRfB9Us7H2j-P-4" value="反欺诈云 sleipnir" style="shape=umlLifeline;perimeter=lifelinePerimeter;whiteSpace=wrap;html=1;container=1;collapsible=0;recursiveResize=0;outlineConnect=0;fillColor=#b0e3e6;strokeColor=#0e8088;" vertex="1" parent="1">
          <mxGeometry x="190" y="150" width="100" height="610" as="geometry" />
        </mxCell>
        <mxCell id="uggn_2pLRfB9Us7H2j-P-5" value="" style="html=1;points=[];perimeter=orthogonalPerimeter;fillColor=#e1d5e7;strokeColor=#9673a6;" vertex="1" parent="uggn_2pLRfB9Us7H2j-P-4">
          <mxGeometry x="45" y="70" width="10" height="80" as="geometry" />
        </mxCell>
        <mxCell id="uggn_2pLRfB9Us7H2j-P-6" value="" style="endArrow=blockThin;endFill=1;endSize=12;html=1;" edge="1" parent="uggn_2pLRfB9Us7H2j-P-4">
          <mxGeometry width="160" relative="1" as="geometry">
            <mxPoint x="55" y="145" as="sourcePoint" />
            <mxPoint x="245" y="145" as="targetPoint" />
          </mxGeometry>
        </mxCell>
        <mxCell id="uggn_2pLRfB9Us7H2j-P-7" value="2.2 执行任务" style="edgeLabel;html=1;align=center;verticalAlign=middle;resizable=0;points=[];" vertex="1" connectable="0" parent="uggn_2pLRfB9Us7H2j-P-6">
          <mxGeometry x="-0.1474" y="2" relative="1" as="geometry">
            <mxPoint x="14" y="-8" as="offset" />
          </mxGeometry>
        </mxCell>
        <mxCell id="uggn_2pLRfB9Us7H2j-P-8" value="" style="html=1;points=[];perimeter=orthogonalPerimeter;fillColor=#e1d5e7;strokeColor=#9673a6;" vertex="1" parent="uggn_2pLRfB9Us7H2j-P-4">
          <mxGeometry x="45" y="240" width="10" height="40" as="geometry" />
        </mxCell>
        <mxCell id="uggn_2pLRfB9Us7H2j-P-9" value="" style="html=1;points=[];perimeter=orthogonalPerimeter;fillColor=#e1d5e7;strokeColor=#9673a6;" vertex="1" parent="uggn_2pLRfB9Us7H2j-P-4">
          <mxGeometry x="45" y="324" width="10" height="66" as="geometry" />
        </mxCell>
        <mxCell id="uggn_2pLRfB9Us7H2j-P-10" value="" style="html=1;points=[];perimeter=orthogonalPerimeter;fillColor=#e1d5e7;strokeColor=#9673a6;" vertex="1" parent="uggn_2pLRfB9Us7H2j-P-4">
          <mxGeometry x="45" y="448" width="10" height="80" as="geometry" />
        </mxCell>
        <mxCell id="uggn_2pLRfB9Us7H2j-P-15" style="edgeStyle=elbowEdgeStyle;rounded=0;orthogonalLoop=1;jettySize=auto;elbow=vertical;html=1;endArrow=open;endFill=0;dashed=1;" edge="1" parent="uggn_2pLRfB9Us7H2j-P-4">
          <mxGeometry relative="1" as="geometry">
            <mxPoint x="645" y="488" as="sourcePoint" />
            <mxPoint x="60" y="488" as="targetPoint" />
          </mxGeometry>
        </mxCell>
        <mxCell id="uggn_2pLRfB9Us7H2j-P-16" value="&amp;nbsp;3.4.3 返回图像结果" style="edgeLabel;html=1;align=center;verticalAlign=middle;resizable=0;points=[];" vertex="1" connectable="0" parent="uggn_2pLRfB9Us7H2j-P-15">
          <mxGeometry x="0.135" y="-2" relative="1" as="geometry">
            <mxPoint x="7" y="-8" as="offset" />
          </mxGeometry>
        </mxCell>
        <mxCell id="uggn_2pLRfB9Us7H2j-P-17" style="edgeStyle=elbowEdgeStyle;rounded=0;orthogonalLoop=1;jettySize=auto;elbow=vertical;html=1;dashed=1;endArrow=open;endFill=0;" edge="1" parent="uggn_2pLRfB9Us7H2j-P-4">
          <mxGeometry relative="1" as="geometry">
            <mxPoint x="55" y="513" as="sourcePoint" />
            <mxPoint x="240" y="513" as="targetPoint" />
          </mxGeometry>
        </mxCell>
        <mxCell id="uggn_2pLRfB9Us7H2j-P-18" value="3.4.4 返回图片决策结果" style="edgeLabel;html=1;align=center;verticalAlign=middle;resizable=0;points=[];" vertex="1" connectable="0" parent="uggn_2pLRfB9Us7H2j-P-17">
          <mxGeometry y="-31" relative="1" as="geometry">
            <mxPoint x="-10" y="-41" as="offset" />
          </mxGeometry>
        </mxCell>
        <mxCell id="uggn_2pLRfB9Us7H2j-P-20" value="" style="endArrow=blockThin;endFill=1;endSize=12;html=1;arcSize=15;startFill=0;orthogonalLoop=1;noJump=1;snapToPoint=1;fixDash=0;editable=0;metaEdit=0;" edge="1" parent="1">
          <mxGeometry width="160" relative="1" as="geometry">
            <mxPoint x="90" y="240" as="sourcePoint" />
            <mxPoint x="230" y="240" as="targetPoint" />
          </mxGeometry>
        </mxCell>
        <mxCell id="uggn_2pLRfB9Us7H2j-P-21" value="1.发起视频检测" style="edgeLabel;html=1;align=center;verticalAlign=middle;resizable=0;points=[];" vertex="1" connectable="0" parent="uggn_2pLRfB9Us7H2j-P-20">
          <mxGeometry x="0.1429" y="-32" relative="1" as="geometry">
            <mxPoint x="-10" y="-42" as="offset" />
          </mxGeometry>
        </mxCell>
        <mxCell id="uggn_2pLRfB9Us7H2j-P-22" value="视频 retina" style="shape=umlLifeline;perimeter=lifelinePerimeter;whiteSpace=wrap;html=1;container=1;collapsible=0;recursiveResize=0;outlineConnect=0;fillColor=#b0e3e6;strokeColor=#0e8088;" vertex="1" parent="1">
          <mxGeometry x="390" y="150" width="100" height="610" as="geometry" />
        </mxCell>
        <mxCell id="uggn_2pLRfB9Us7H2j-P-23" value="" style="html=1;points=[];perimeter=orthogonalPerimeter;fillColor=#e1d5e7;strokeColor=#9673a6;" vertex="1" parent="uggn_2pLRfB9Us7H2j-P-22">
          <mxGeometry x="45" y="140" width="10" height="470" as="geometry" />
        </mxCell>
        <mxCell id="uggn_2pLRfB9Us7H2j-P-24" value="文本 cangjie" style="shape=umlLifeline;perimeter=lifelinePerimeter;whiteSpace=wrap;html=1;container=1;collapsible=0;recursiveResize=0;outlineConnect=0;fillColor=#b0e3e6;strokeColor=#0e8088;" vertex="1" parent="1">
          <mxGeometry x="600" y="147" width="100" height="613" as="geometry" />
        </mxCell>
        <mxCell id="uggn_2pLRfB9Us7H2j-P-25" value="" style="html=1;points=[];perimeter=orthogonalPerimeter;fillColor=#e1d5e7;strokeColor=#9673a6;" vertex="1" parent="uggn_2pLRfB9Us7H2j-P-24">
          <mxGeometry x="45" y="237" width="10" height="54" as="geometry" />
        </mxCell>
        <mxCell id="uggn_2pLRfB9Us7H2j-P-69" value="" style="html=1;points=[];perimeter=orthogonalPerimeter;fillColor=#e1d5e7;strokeColor=#9673a6;" vertex="1" parent="uggn_2pLRfB9Us7H2j-P-24">
          <mxGeometry x="45" y="346" width="10" height="20" as="geometry" />
        </mxCell>
        <mxCell id="uggn_2pLRfB9Us7H2j-P-26" value="图像 siamat" style="shape=umlLifeline;perimeter=lifelinePerimeter;whiteSpace=wrap;html=1;container=1;collapsible=0;recursiveResize=0;outlineConnect=0;fillColor=#b0e3e6;strokeColor=#0e8088;" vertex="1" parent="1">
          <mxGeometry x="790" y="150" width="100" height="610" as="geometry" />
        </mxCell>
        <mxCell id="uggn_2pLRfB9Us7H2j-P-27" value="" style="html=1;points=[];perimeter=orthogonalPerimeter;fillColor=#e1d5e7;strokeColor=#9673a6;" vertex="1" parent="uggn_2pLRfB9Us7H2j-P-26">
          <mxGeometry x="45" y="316" width="10" height="94" as="geometry" />
        </mxCell>
        <mxCell id="uggn_2pLRfB9Us7H2j-P-28" value="" style="html=1;points=[];perimeter=orthogonalPerimeter;fillColor=#e1d5e7;strokeColor=#9673a6;" vertex="1" parent="uggn_2pLRfB9Us7H2j-P-26">
          <mxGeometry x="45" y="450" width="10" height="63" as="geometry" />
        </mxCell>
        <mxCell id="uggn_2pLRfB9Us7H2j-P-29" value="语音 kara" style="shape=umlLifeline;perimeter=lifelinePerimeter;whiteSpace=wrap;html=1;container=1;collapsible=0;recursiveResize=0;outlineConnect=0;fillColor=#b0e3e6;strokeColor=#0e8088;" vertex="1" parent="1">
          <mxGeometry x="990" y="150" width="100" height="610" as="geometry" />
        </mxCell>
        <mxCell id="uggn_2pLRfB9Us7H2j-P-30" value="" style="html=1;points=[];perimeter=orthogonalPerimeter;fillColor=#e1d5e7;strokeColor=#9673a6;" vertex="1" parent="uggn_2pLRfB9Us7H2j-P-29">
          <mxGeometry x="45" y="190" width="10" height="160" as="geometry" />
        </mxCell>
        <mxCell id="uggn_2pLRfB9Us7H2j-P-31" value="" style="html=1;points=[];perimeter=orthogonalPerimeter;fillColor=#e1d5e7;strokeColor=#9673a6;" vertex="1" parent="uggn_2pLRfB9Us7H2j-P-29">
          <mxGeometry x="45" y="520" width="10" height="50" as="geometry" />
        </mxCell>
        <mxCell id="uggn_2pLRfB9Us7H2j-P-32" value="" style="edgeStyle=orthogonalEdgeStyle;html=1;align=left;spacingLeft=2;endArrow=block;rounded=0;" edge="1" parent="1">
          <mxGeometry x="-0.1418" y="36" relative="1" as="geometry">
            <mxPoint x="245.5" y="252" as="sourcePoint" />
            <Array as="points">
              <mxPoint x="306" y="252" />
              <mxPoint x="306" y="272" />
            </Array>
            <mxPoint x="245.5" y="272" as="targetPoint" />
            <mxPoint x="-16" y="-30" as="offset" />
          </mxGeometry>
        </mxCell>
        <mxCell id="uggn_2pLRfB9Us7H2j-P-33" value="&lt;span style=&quot;text-align: left&quot;&gt;2.1任务异步入队&lt;/span&gt;" style="edgeLabel;html=1;align=center;verticalAlign=middle;resizable=0;points=[];" vertex="1" connectable="0" parent="uggn_2pLRfB9Us7H2j-P-32">
          <mxGeometry x="-0.5816" y="-1" relative="1" as="geometry">
            <mxPoint x="16.5" y="-11" as="offset" />
          </mxGeometry>
        </mxCell>
        <mxCell id="uggn_2pLRfB9Us7H2j-P-34" value="" style="edgeStyle=orthogonalEdgeStyle;html=1;align=left;spacingLeft=2;endArrow=block;rounded=0;" edge="1" parent="1">
          <mxGeometry x="-0.1418" y="36" relative="1" as="geometry">
            <mxPoint x="445" y="330" as="sourcePoint" />
            <Array as="points">
              <mxPoint x="506" y="330" />
              <mxPoint x="506" y="340" />
            </Array>
            <mxPoint x="445" y="340" as="targetPoint" />
            <mxPoint x="-16" y="-30" as="offset" />
          </mxGeometry>
        </mxCell>
        <mxCell id="uggn_2pLRfB9Us7H2j-P-35" value="&lt;span style=&quot;text-align: left&quot;&gt;抽取音频&lt;/span&gt;" style="edgeLabel;html=1;align=center;verticalAlign=middle;resizable=0;points=[];" vertex="1" connectable="0" parent="uggn_2pLRfB9Us7H2j-P-34">
          <mxGeometry x="-0.5816" y="-1" relative="1" as="geometry">
            <mxPoint x="16.5" y="-11" as="offset" />
          </mxGeometry>
        </mxCell>
        <mxCell id="uggn_2pLRfB9Us7H2j-P-36" style="edgeStyle=elbowEdgeStyle;rounded=0;orthogonalLoop=1;jettySize=auto;elbow=vertical;html=1;endArrow=block;endFill=1;entryX=0;entryY=0.113;entryDx=0;entryDy=0;entryPerimeter=0;" edge="1" parent="1" source="uggn_2pLRfB9Us7H2j-P-23" target="uggn_2pLRfB9Us7H2j-P-30">
          <mxGeometry relative="1" as="geometry">
            <mxPoint x="1030" y="350" as="targetPoint" />
          </mxGeometry>
        </mxCell>
        <mxCell id="uggn_2pLRfB9Us7H2j-P-37" value="3.1 异步提交音频检测任务" style="edgeLabel;html=1;align=center;verticalAlign=middle;resizable=0;points=[];" vertex="1" connectable="0" parent="uggn_2pLRfB9Us7H2j-P-36">
          <mxGeometry x="0.0338" y="3" relative="1" as="geometry">
            <mxPoint x="180" y="-6" as="offset" />
          </mxGeometry>
        </mxCell>
        <mxCell id="uggn_2pLRfB9Us7H2j-P-38" value="" style="edgeStyle=orthogonalEdgeStyle;html=1;align=left;spacingLeft=2;endArrow=block;rounded=0;entryX=0.9;entryY=0.6;entryDx=0;entryDy=0;entryPerimeter=0;" edge="1" parent="1" target="uggn_2pLRfB9Us7H2j-P-30">
          <mxGeometry x="-0.1418" y="36" relative="1" as="geometry">
            <mxPoint x="1046" y="360" as="sourcePoint" />
            <Array as="points">
              <mxPoint x="1107" y="360" />
              <mxPoint x="1107" y="436" />
            </Array>
            <mxPoint x="1046" y="370" as="targetPoint" />
            <mxPoint x="-16" y="-30" as="offset" />
          </mxGeometry>
        </mxCell>
        <mxCell id="uggn_2pLRfB9Us7H2j-P-39" value="&lt;span style=&quot;text-align: left&quot;&gt;调用音频模型&lt;/span&gt;" style="edgeLabel;html=1;align=center;verticalAlign=middle;resizable=0;points=[];" vertex="1" connectable="0" parent="uggn_2pLRfB9Us7H2j-P-38">
          <mxGeometry x="-0.5816" y="-1" relative="1" as="geometry">
            <mxPoint x="16.5" y="-11" as="offset" />
          </mxGeometry>
        </mxCell>
        <mxCell id="uggn_2pLRfB9Us7H2j-P-42" style="edgeStyle=elbowEdgeStyle;rounded=0;orthogonalLoop=1;jettySize=auto;elbow=vertical;html=1;endArrow=block;endFill=1;comic=0;shadow=0;" edge="1" parent="1">
          <mxGeometry relative="1" as="geometry">
            <mxPoint x="445" y="384" as="sourcePoint" />
            <mxPoint x="646" y="385" as="targetPoint" />
          </mxGeometry>
        </mxCell>
        <mxCell id="uggn_2pLRfB9Us7H2j-P-43" value="3.2.1 调用文本服务" style="edgeLabel;html=1;align=center;verticalAlign=middle;resizable=0;points=[];" vertex="1" connectable="0" parent="uggn_2pLRfB9Us7H2j-P-42">
          <mxGeometry y="-70" relative="1" as="geometry">
            <mxPoint x="-13" y="-81" as="offset" />
          </mxGeometry>
        </mxCell>
        <mxCell id="uggn_2pLRfB9Us7H2j-P-44" style="edgeStyle=elbowEdgeStyle;rounded=0;orthogonalLoop=1;jettySize=auto;elbow=vertical;html=1;endArrow=open;endFill=0;" edge="1" parent="1">
          <mxGeometry relative="1" as="geometry">
            <mxPoint x="250" y="394" as="targetPoint" />
            <Array as="points">
              <mxPoint x="500" y="394" />
            </Array>
            <mxPoint x="645" y="394" as="sourcePoint" />
          </mxGeometry>
        </mxCell>
        <mxCell id="uggn_2pLRfB9Us7H2j-P-45" value="3.2.2 调用决策服务" style="edgeLabel;html=1;align=center;verticalAlign=middle;resizable=0;points=[];" vertex="1" connectable="0" parent="uggn_2pLRfB9Us7H2j-P-44">
          <mxGeometry x="0.6051" y="-2" relative="1" as="geometry">
            <mxPoint x="12" y="-8" as="offset" />
          </mxGeometry>
        </mxCell>
        <mxCell id="uggn_2pLRfB9Us7H2j-P-46" value="3.2.3 返回决策结果" style="edgeStyle=elbowEdgeStyle;rounded=0;orthogonalLoop=1;jettySize=auto;elbow=vertical;html=1;dashed=1;endArrow=open;endFill=0;" edge="1" parent="1">
          <mxGeometry x="0.3103" y="10" relative="1" as="geometry">
            <mxPoint x="644" y="417" as="targetPoint" />
            <Array as="points">
              <mxPoint x="318" y="417" />
            </Array>
            <mxPoint x="245" y="417" as="sourcePoint" />
            <mxPoint as="offset" />
          </mxGeometry>
        </mxCell>
        <mxCell id="uggn_2pLRfB9Us7H2j-P-47" style="edgeStyle=elbowEdgeStyle;rounded=0;orthogonalLoop=1;jettySize=auto;elbow=vertical;html=1;endArrow=block;endFill=1;" edge="1" parent="1">
          <mxGeometry relative="1" as="geometry">
            <mxPoint x="830" y="478" as="sourcePoint" />
            <mxPoint x="246.5" y="478" as="targetPoint" />
            <Array as="points">
              <mxPoint x="830" y="478" />
            </Array>
          </mxGeometry>
        </mxCell>
        <mxCell id="uggn_2pLRfB9Us7H2j-P-48" value="3.3.2 图像决策" style="edgeLabel;html=1;align=center;verticalAlign=middle;resizable=0;points=[];" vertex="1" connectable="0" parent="uggn_2pLRfB9Us7H2j-P-47">
          <mxGeometry x="0.2649" y="2" relative="1" as="geometry">
            <mxPoint x="-111" y="-12" as="offset" />
          </mxGeometry>
        </mxCell>
        <mxCell id="uggn_2pLRfB9Us7H2j-P-49" style="edgeStyle=elbowEdgeStyle;rounded=0;orthogonalLoop=1;jettySize=auto;elbow=vertical;html=1;endArrow=block;endFill=1;" edge="1" parent="1">
          <mxGeometry relative="1" as="geometry">
            <mxPoint x="830" y="469" as="targetPoint" />
            <Array as="points">
              <mxPoint x="510" y="469" />
            </Array>
            <mxPoint x="450" y="469" as="sourcePoint" />
          </mxGeometry>
        </mxCell>
        <mxCell id="uggn_2pLRfB9Us7H2j-P-50" value="3.3.1 视频封面检测" style="edgeLabel;html=1;align=center;verticalAlign=middle;resizable=0;points=[];" vertex="1" connectable="0" parent="uggn_2pLRfB9Us7H2j-P-49">
          <mxGeometry x="0.5624" y="2" relative="1" as="geometry">
            <mxPoint x="18" y="-8" as="offset" />
          </mxGeometry>
        </mxCell>
        <mxCell id="uggn_2pLRfB9Us7H2j-P-51" value="3.2 视频标题、&lt;br&gt;&amp;nbsp; &amp;nbsp; &amp;nbsp; 描述检测" style="shape=note;whiteSpace=wrap;html=1;size=14;verticalAlign=top;align=left;spacingTop=-6;fillColor=#ffe6cc;strokeColor=#d79b00;" vertex="1" parent="1">
          <mxGeometry x="120" y="390" width="100" height="30" as="geometry" />
        </mxCell>
        <mxCell id="uggn_2pLRfB9Us7H2j-P-52" style="edgeStyle=elbowEdgeStyle;rounded=0;orthogonalLoop=1;jettySize=auto;elbow=vertical;html=1;endArrow=open;endFill=0;dashed=1;" edge="1" parent="1">
          <mxGeometry relative="1" as="geometry">
            <mxPoint x="831" y="557" as="sourcePoint" />
            <mxPoint x="446" y="557" as="targetPoint" />
          </mxGeometry>
        </mxCell>
        <mxCell id="uggn_2pLRfB9Us7H2j-P-53" value="&amp;nbsp;3.3.5 返回 组装的图像结果" style="edgeLabel;html=1;align=center;verticalAlign=middle;resizable=0;points=[];" vertex="1" connectable="0" parent="uggn_2pLRfB9Us7H2j-P-52">
          <mxGeometry x="0.135" y="-2" relative="1" as="geometry">
            <mxPoint x="-53" y="-8" as="offset" />
          </mxGeometry>
        </mxCell>
        <mxCell id="uggn_2pLRfB9Us7H2j-P-54" style="edgeStyle=elbowEdgeStyle;rounded=0;orthogonalLoop=1;jettySize=auto;elbow=vertical;html=1;dashed=1;endArrow=open;endFill=0;" edge="1" parent="1">
          <mxGeometry relative="1" as="geometry">
            <mxPoint x="245" y="535" as="sourcePoint" />
            <mxPoint x="830" y="535" as="targetPoint" />
          </mxGeometry>
        </mxCell>
        <mxCell id="uggn_2pLRfB9Us7H2j-P-55" value="3.3.4 返回封面决策结果" style="edgeLabel;html=1;align=center;verticalAlign=middle;resizable=0;points=[];" vertex="1" connectable="0" parent="uggn_2pLRfB9Us7H2j-P-54">
          <mxGeometry y="-31" relative="1" as="geometry">
            <mxPoint x="-10" y="-41" as="offset" />
          </mxGeometry>
        </mxCell>
        <mxCell id="uggn_2pLRfB9Us7H2j-P-56" value="3.1&amp;nbsp; 音频检测" style="shape=note;whiteSpace=wrap;html=1;size=14;verticalAlign=top;align=left;spacingTop=-6;fillColor=#ffe6cc;strokeColor=#d79b00;" vertex="1" parent="1">
          <mxGeometry x="930" y="440" width="100" height="20" as="geometry" />
        </mxCell>
        <mxCell id="uggn_2pLRfB9Us7H2j-P-57" value="3.3 视频封面&lt;br&gt;&amp;nbsp; &amp;nbsp; &amp;nbsp; 检测" style="shape=note;whiteSpace=wrap;html=1;size=14;verticalAlign=top;align=left;spacingTop=-6;fillColor=#ffe6cc;strokeColor=#d79b00;" vertex="1" parent="1">
          <mxGeometry x="120" y="480" width="100" height="30" as="geometry" />
        </mxCell>
        <mxCell id="uggn_2pLRfB9Us7H2j-P-58" value="" style="edgeStyle=orthogonalEdgeStyle;html=1;align=left;spacingLeft=2;endArrow=block;rounded=0;entryX=0.9;entryY=0.6;entryDx=0;entryDy=0;entryPerimeter=0;dashed=1;dashPattern=1 4;strokeColor=#FF0000;" edge="1" parent="1">
          <mxGeometry x="-0.1418" y="36" relative="1" as="geometry">
            <mxPoint x="1036" y="470" as="sourcePoint" />
            <Array as="points">
              <mxPoint x="930" y="470" />
              <mxPoint x="930" y="498" />
            </Array>
            <mxPoint x="1034" y="498" as="targetPoint" />
            <mxPoint x="-16" y="-30" as="offset" />
          </mxGeometry>
        </mxCell>
        <mxCell id="uggn_2pLRfB9Us7H2j-P-59" value="&lt;span style=&quot;text-align: left&quot;&gt;调用文本决策&lt;/span&gt;" style="edgeLabel;html=1;align=center;verticalAlign=middle;resizable=0;points=[];" vertex="1" connectable="0" parent="uggn_2pLRfB9Us7H2j-P-58">
          <mxGeometry x="-0.5816" y="-1" relative="1" as="geometry">
            <mxPoint x="-16" y="11" as="offset" />
          </mxGeometry>
        </mxCell>
        <mxCell id="uggn_2pLRfB9Us7H2j-P-60" value="调用文本决策&lt;br&gt;逻辑和 【3.2 视频标题检测】逻辑相同，不再细画" style="shape=note;whiteSpace=wrap;html=1;size=14;verticalAlign=top;align=left;spacingTop=-6;fillColor=#ffe6cc;strokeColor=#d79b00;" vertex="1" parent="1">
          <mxGeometry x="1060" y="450" width="100" height="60" as="geometry" />
        </mxCell>
        <mxCell id="uggn_2pLRfB9Us7H2j-P-61" style="edgeStyle=elbowEdgeStyle;rounded=0;orthogonalLoop=1;jettySize=auto;elbow=vertical;html=1;startArrow=none;startFill=0;endArrow=blockThin;endFill=1;" edge="1" parent="1">
          <mxGeometry relative="1" as="geometry">
            <mxPoint x="445" y="678" as="sourcePoint" />
            <mxPoint x="1030" y="678" as="targetPoint" />
          </mxGeometry>
        </mxCell>
        <mxCell id="uggn_2pLRfB9Us7H2j-P-62" value="3.5.1 轮训音频结果" style="edgeLabel;html=1;align=center;verticalAlign=middle;resizable=0;points=[];" vertex="1" connectable="0" parent="uggn_2pLRfB9Us7H2j-P-61">
          <mxGeometry x="0.4872" y="1" relative="1" as="geometry">
            <mxPoint x="40" y="-9" as="offset" />
          </mxGeometry>
        </mxCell>
        <mxCell id="uggn_2pLRfB9Us7H2j-P-63" style="edgeStyle=elbowEdgeStyle;rounded=0;orthogonalLoop=1;jettySize=auto;elbow=vertical;html=1;startArrow=classicThin;startFill=1;endArrow=none;endFill=0;dashed=1;" edge="1" parent="1">
          <mxGeometry relative="1" as="geometry">
            <mxPoint x="445" y="708" as="sourcePoint" />
            <mxPoint x="1030" y="708" as="targetPoint" />
          </mxGeometry>
        </mxCell>
        <mxCell id="uggn_2pLRfB9Us7H2j-P-64" value="3.5.2 返回音频结果" style="edgeLabel;html=1;align=center;verticalAlign=middle;resizable=0;points=[];" vertex="1" connectable="0" parent="uggn_2pLRfB9Us7H2j-P-63">
          <mxGeometry x="0.4872" y="1" relative="1" as="geometry">
            <mxPoint x="30" y="-9" as="offset" />
          </mxGeometry>
        </mxCell>
        <mxCell id="uggn_2pLRfB9Us7H2j-P-65" value="" style="edgeStyle=orthogonalEdgeStyle;html=1;align=left;spacingLeft=2;endArrow=block;rounded=0;" edge="1" parent="1">
          <mxGeometry x="-0.1418" y="36" relative="1" as="geometry">
            <mxPoint x="446" y="735" as="sourcePoint" />
            <Array as="points">
              <mxPoint x="507" y="735" />
              <mxPoint x="507" y="755" />
              <mxPoint x="446" y="755" />
            </Array>
            <mxPoint x="446" y="755" as="targetPoint" />
            <mxPoint x="-16" y="-30" as="offset" />
          </mxGeometry>
        </mxCell>
        <mxCell id="uggn_2pLRfB9Us7H2j-P-66" value="&lt;span style=&quot;text-align: left&quot;&gt;3.6 合并结果，入库&lt;/span&gt;" style="edgeLabel;html=1;align=center;verticalAlign=middle;resizable=0;points=[];" vertex="1" connectable="0" parent="uggn_2pLRfB9Us7H2j-P-65">
          <mxGeometry x="-0.5816" y="-1" relative="1" as="geometry">
            <mxPoint x="34" y="-11" as="offset" />
          </mxGeometry>
        </mxCell>
        <mxCell id="uggn_2pLRfB9Us7H2j-P-67" style="edgeStyle=elbowEdgeStyle;rounded=0;orthogonalLoop=1;jettySize=auto;elbow=vertical;html=1;endArrow=block;endFill=1;dashed=1;" edge="1" parent="1">
          <mxGeometry relative="1" as="geometry">
            <mxPoint x="645" y="437" as="sourcePoint" />
            <mxPoint x="445" y="437" as="targetPoint" />
          </mxGeometry>
        </mxCell>
        <mxCell id="uggn_2pLRfB9Us7H2j-P-68" value="3.3.4 返回组装的结果" style="edgeLabel;html=1;align=center;verticalAlign=middle;resizable=0;points=[];" vertex="1" connectable="0" parent="uggn_2pLRfB9Us7H2j-P-67">
          <mxGeometry x="0.2649" y="2" relative="1" as="geometry">
            <mxPoint x="12" y="-11" as="offset" />
          </mxGeometry>
        </mxCell>
        <mxCell id="uggn_2pLRfB9Us7H2j-P-13" style="edgeStyle=elbowEdgeStyle;rounded=0;orthogonalLoop=1;jettySize=auto;elbow=vertical;html=1;endArrow=block;endFill=1;" edge="1" parent="1">
          <mxGeometry relative="1" as="geometry">
            <mxPoint x="827" y="602" as="targetPoint" />
            <Array as="points">
              <mxPoint x="507" y="602" />
            </Array>
            <mxPoint x="447" y="602" as="sourcePoint" />
          </mxGeometry>
        </mxCell>
        <mxCell id="uggn_2pLRfB9Us7H2j-P-14" value="3.4.1 图像批量检测" style="edgeLabel;html=1;align=center;verticalAlign=middle;resizable=0;points=[];" vertex="1" connectable="0" parent="uggn_2pLRfB9Us7H2j-P-13">
          <mxGeometry x="0.5624" y="2" relative="1" as="geometry">
            <mxPoint x="18" y="-8" as="offset" />
          </mxGeometry>
        </mxCell>
        <mxCell id="uggn_2pLRfB9Us7H2j-P-11" style="edgeStyle=elbowEdgeStyle;rounded=0;orthogonalLoop=1;jettySize=auto;elbow=vertical;html=1;endArrow=block;endFill=1;" edge="1" parent="1">
          <mxGeometry relative="1" as="geometry">
            <mxPoint x="835" y="618" as="sourcePoint" />
            <mxPoint x="245" y="618" as="targetPoint" />
          </mxGeometry>
        </mxCell>
        <mxCell id="uggn_2pLRfB9Us7H2j-P-12" value="3.4.2 图像决策" style="edgeLabel;html=1;align=center;verticalAlign=middle;resizable=0;points=[];" vertex="1" connectable="0" parent="uggn_2pLRfB9Us7H2j-P-11">
          <mxGeometry x="0.2649" y="2" relative="1" as="geometry">
            <mxPoint x="-112" y="-17" as="offset" />
          </mxGeometry>
        </mxCell>
        <mxCell id="uggn_2pLRfB9Us7H2j-P-70" style="edgeStyle=elbowEdgeStyle;rounded=0;orthogonalLoop=1;jettySize=auto;elbow=vertical;html=1;endArrow=blockThin;endFill=1;" edge="1" parent="1">
          <mxGeometry relative="1" as="geometry">
            <mxPoint x="244" y="496.5" as="sourcePoint" />
            <mxPoint x="640" y="497" as="targetPoint" />
          </mxGeometry>
        </mxCell>
        <mxCell id="uggn_2pLRfB9Us7H2j-P-71" value="3.3.3 如果是OCR模型调用文本" style="edgeLabel;html=1;align=center;verticalAlign=middle;resizable=0;points=[];" vertex="1" connectable="0" parent="uggn_2pLRfB9Us7H2j-P-70">
          <mxGeometry y="-31" relative="1" as="geometry">
            <mxPoint x="88.5" y="-42" as="offset" />
          </mxGeometry>
        </mxCell>
        <mxCell id="uggn_2pLRfB9Us7H2j-P-72" value="OCR 模型调用文本逻辑和 【3.2 视频标题检测】逻辑相同，不再细画" style="shape=note;whiteSpace=wrap;html=1;size=14;verticalAlign=top;align=left;spacingTop=-6;fillColor=#ffe6cc;strokeColor=#d79b00;" vertex="1" parent="1">
          <mxGeometry x="660" y="480" width="150" height="40" as="geometry" />
        </mxCell>
        <mxCell id="uggn_2pLRfB9Us7H2j-P-19" value="3.4 视频截帧&lt;br&gt;&amp;nbsp; &amp;nbsp; &amp;nbsp; 图片检测" style="shape=note;whiteSpace=wrap;html=1;size=14;verticalAlign=top;align=left;spacingTop=-6;fillColor=#ffe6cc;strokeColor=#d79b00;" vertex="1" parent="1">
          <mxGeometry x="120" y="640" width="100" height="30" as="geometry" />
        </mxCell>
      </root>
    </mxGraphModel>
  </diagram>
</mxfile>
